<svg xmlns="http://www.w3.org/2000/svg" width="200" height="200" viewBox="0 0 200 200">
  <defs>
    <linearGradient id="grad1" x1="0%" y1="0%" x2="100%" y2="100%">
      <stop offset="0%" style="stop-color:#4A90E2;stop-opacity:1" />
      <stop offset="100%" style="stop-color:#5A5DE8;stop-opacity:1" />
    </linearGradient>
  </defs>
  <rect width="200" height="200" rx="20" ry="20" fill="url(#grad1)" />
  <text x="100" y="115" font-family="Arial, sans-serif" font-size="36" font-weight="bold" text-anchor="middle" fill="white">ScriptAI</text>
  <path d="M60,70 L90,70 L90,80 L70,80 L70,130 L60,130 Z" fill="white" />
  <path d="M100,70 C115,70 130,75 130,95 C130,115 115,120 100,120 L100,110 C110,110 120,107 120,95 C120,83 110,80 100,80 Z" fill="white" />
  <path d="M140,70 L150,70 L150,130 L140,130 Z" fill="white" />
  <path d="M100,130 L100,120 L100,130 Z" fill="white" />
</svg>